{"glyphs":{" ":{"ha":747,"x_min":0,"x_max":0,"o":""},"A":{"ha":1139,"x_min":68,"x_max":1071,"o":"m 633 543 q 603 821 618 667 q 573 1158 588 975 q 498 543 513 737 l 633 543 m 132 18 l 68 18 l 82 121 q 106 71 94 96 q 132 18 119 45 m 805 18 l 664 18 l 653 167 q 706 120 692 136 q 746 82 726 94 q 781 50 766 71 q 805 18 789 37 m 844 1486 l 1071 18 l 914 18 q 887 30 895 26 q 854 56 878 34 q 813 98 826 80 q 788 131 801 117 q 755 170 774 145 q 706 222 736 195 q 648 242 686 238 l 644 282 l 503 282 l 479 18 l 313 18 q 209 202 252 122 q 153 323 166 283 q 119 387 146 344 l 270 1486 l 844 1486 z "},"B":{"ha":1059,"x_min":68,"x_max":991,"o":"m 465 270 q 572 295 547 271 q 595 406 595 317 l 595 543 q 574 657 595 637 q 465 680 553 677 l 465 270 m 991 367 l 991 363 q 956 142 991 214 q 844 45 920 71 q 527 18 766 18 l 68 18 l 68 1283 l 219 1118 l 314 985 l 991 367 m 703 1469 q 748 1458 731 1463 q 904 1344 844 1430 q 956 1190 942 1289 l 912 1239 l 804 1379 l 703 1469 m 113 1486 l 464 1486 q 560 1484 515 1486 l 618 1443 l 721 1277 q 794 1216 721 1277 q 905 1118 867 1156 q 950 1054 944 1079 q 957 1028 957 1028 l 962 1020 q 922 889 954 928 q 756 811 879 837 q 943 711 894 780 q 991 499 991 642 l 991 385 l 560 920 q 579 937 572 926 q 595 1095 595 965 q 582 1192 595 1164 q 547 1227 568 1219 q 465 1235 526 1234 l 465 1041 l 323 1229 l 197 1368 l 113 1486 z "},"C":{"ha":1073,"x_min":68,"x_max":1005,"o":"m 606 1514 q 820 1452 730 1502 q 970 1289 933 1385 q 1005 985 1005 1192 l 1005 924 q 987 951 994 939 q 922 1050 972 979 q 816 1202 873 1121 q 706 1359 759 1283 q 633 1472 654 1434 q 606 1514 624 1487 m 879 99 q 825 60 854 78 l 737 179 l 879 99 m 913 606 l 1005 606 l 1005 549 q 1005 539 1005 544 q 1005 530 1005 534 l 951 570 l 913 606 m 608 433 l 608 606 l 728 606 l 836 486 l 987 349 l 995 336 q 972 226 987 271 q 881 100 947 157 l 826 186 l 699 339 l 608 433 m 465 446 l 465 408 q 477 269 465 300 q 537 236 490 236 q 595 269 581 236 q 602 294 597 276 l 610 288 l 680 173 l 825 60 q 824 59 824 60 q 824 59 824 59 q 542 -12 709 -12 q 254 48 366 -12 q 104 216 141 109 q 68 540 68 324 l 68 818 l 189 728 q 236 696 189 728 q 323 626 284 665 q 385 551 344 604 q 465 446 427 497 m 465 930 l 465 591 l 265 811 l 68 1002 q 79 1206 68 1129 q 112 1306 87 1258 l 155 1274 l 249 1127 l 465 930 m 913 846 l 701 846 l 629 927 l 608 953 l 608 1101 q 596 1241 608 1213 q 540 1269 583 1269 q 477 1235 490 1269 q 465 1103 465 1201 l 415 1179 l 331 1295 l 298 1348 l 257 1411 l 217 1428 q 302 1475 253 1453 q 525 1517 400 1516 l 732 1191 l 872 902 q 884 886 872 902 q 913 846 895 871 z "},"D":{"ha":1055,"x_min":68,"x_max":987,"o":"m 465 1235 l 465 270 q 570 302 550 270 q 590 482 590 336 l 590 1053 q 583 1181 590 1149 q 553 1222 575 1209 q 465 1235 528 1235 m 159 18 l 68 18 l 68 132 l 130 64 l 159 18 m 465 18 l 379 18 l 260 191 l 155 307 l 87 412 l 68 426 l 68 509 q 230 326 138 427 q 378 143 323 224 q 414 91 391 123 q 465 18 436 59 m 843 1427 q 907 1377 880 1407 q 973 1249 960 1320 q 984 1131 979 1212 l 896 1297 l 843 1427 m 68 1486 l 365 1486 q 684 1473 576 1486 l 718 1336 q 770 1275 718 1336 q 846 1177 821 1215 q 867 1113 869 1138 q 864 1087 864 1087 l 897 934 l 987 843 l 987 454 q 967 190 987 258 q 900 86 947 122 q 781 33 852 48 q 615 19 722 20 q 526 127 555 101 q 465 221 501 148 q 391 378 429 294 q 318 535 353 462 q 262 630 283 608 q 179 676 219 673 q 138 680 138 680 q 118 701 138 680 q 68 755 97 723 l 68 1486 z "},"E":{"ha":824,"x_min":68,"x_max":756,"o":"m 68 1486 l 730 1486 l 730 1192 l 465 1192 l 465 1007 l 433 1078 l 410 1139 l 348 1167 l 334 1074 l 354 1017 l 386 948 l 432 876 l 433 790 l 474 745 l 591 644 l 581 685 l 570 774 l 550 798 l 506 867 l 493 914 l 713 914 l 713 635 l 465 635 l 465 312 l 756 312 l 756 18 l 68 18 l 68 692 q 70 688 68 690 q 73 685 71 686 q 103 620 85 665 q 140 528 122 575 q 170 446 157 481 q 183 410 183 410 l 237 347 l 265 232 l 370 117 l 324 238 l 441 155 l 416 244 l 344 397 l 257 545 l 82 870 l 68 891 l 68 1486 z "},"F":{"ha":808,"x_min":68,"x_max":740,"o":"m 465 295 l 465 18 l 68 18 l 68 1252 q 68 1251 68 1251 q 69 1251 69 1251 q 88 1225 69 1251 q 131 1159 107 1200 q 156 1089 142 1139 q 181 987 170 1039 q 201 896 193 935 q 209 856 209 856 q 236 807 222 831 q 264 758 250 783 q 292 725 264 758 q 329 667 320 692 q 322 602 337 642 q 308 562 308 562 q 359 486 334 524 q 411 411 385 448 q 430 373 411 411 q 465 295 448 335 m 464 1486 l 740 1486 l 740 1205 l 652 1284 l 579 1384 l 513 1429 l 464 1486 m 125 1486 l 334 1486 l 418 1412 l 507 1351 l 579 1261 l 623 1192 l 465 1192 l 465 914 l 709 914 l 709 635 l 492 635 q 434 697 474 667 q 422 776 428 736 q 411 856 417 816 q 326 957 358 905 q 262 1075 294 1009 q 228 1159 245 1117 q 195 1244 211 1201 l 168 1318 l 153 1399 l 130 1473 l 125 1486 z "},"G":{"ha":1057,"x_min":68,"x_max":989,"o":"m 605 439 l 605 583 l 562 583 q 559 612 562 600 q 556 691 554 641 q 558 741 558 741 q 574 719 558 741 q 603 675 591 697 q 615 637 614 652 q 635 600 616 623 q 701 535 654 577 q 749 492 749 492 l 722 567 l 663 651 q 656 684 663 651 q 633 734 649 716 q 617 768 623 747 q 609 806 611 790 l 989 806 l 989 18 l 740 18 l 718 80 q 707 133 718 100 q 703 202 696 166 q 693 270 709 237 q 676 325 676 302 q 651 375 675 340 q 605 439 627 410 m 465 696 l 465 397 q 477 267 465 300 q 530 236 491 236 q 576 252 559 236 q 598 199 587 223 q 615 166 609 174 q 655 70 646 126 q 656 63 654 74 q 601 22 629 37 q 455 -12 538 -12 q 269 34 355 -12 q 136 150 181 80 q 79 294 90 220 q 68 522 68 372 l 68 958 q 92 1263 68 1171 q 227 1438 115 1358 q 265 1461 240 1447 q 249 1420 249 1430 q 247 1379 248 1400 q 252 1345 245 1358 q 274 1309 258 1331 q 302 1246 290 1286 q 338 1159 315 1206 q 362 1082 362 1113 q 382 1004 362 1050 q 411 944 402 958 q 426 894 419 930 q 435 840 433 857 q 436 798 437 821 q 434 762 434 775 q 443 735 434 753 q 465 696 452 717 m 989 945 l 606 945 l 593 979 l 593 1079 q 582 1237 593 1205 q 528 1269 569 1269 q 477 1241 492 1269 q 469 1202 473 1231 q 456 1224 460 1212 q 452 1264 451 1237 q 454 1337 453 1298 q 444 1390 454 1376 q 438 1412 433 1403 q 443 1420 443 1420 l 443 1510 l 441 1513 q 515 1517 476 1517 q 805 1448 690 1517 q 955 1284 918 1380 q 989 1009 989 1190 l 989 945 z "},"H":{"ha":1048,"x_min":68,"x_max":980,"o":"m 980 308 l 980 18 l 584 18 l 584 635 l 465 635 l 465 18 l 68 18 l 68 1486 l 465 1486 l 465 961 l 584 961 l 584 1486 l 683 1486 l 724 1308 q 729 1281 724 1308 q 742 1233 733 1255 q 753 1182 751 1211 q 755 1154 755 1154 l 787 1086 q 787 1053 787 1086 q 791 977 787 1019 q 801 898 794 935 q 822 854 808 861 q 846 821 848 840 q 844 802 844 802 l 839 715 l 784 585 q 791 570 784 585 q 814 536 799 555 q 798 464 829 515 q 766 412 766 412 q 759 384 766 412 q 768 355 751 355 q 845 359 785 355 q 905 363 905 363 l 959 345 q 965 334 959 345 q 980 308 970 324 m 980 732 l 980 554 q 958 602 972 583 q 935 641 945 621 q 940 727 917 677 q 963 760 953 755 q 972 764 972 764 l 980 732 m 980 1486 l 980 833 q 928 918 961 866 q 891 993 896 970 q 892 1098 876 1055 q 893 1207 898 1114 q 870 1326 888 1301 q 837 1362 851 1352 q 817 1386 823 1372 q 803 1421 810 1400 q 796 1442 796 1442 q 800 1450 796 1442 q 797 1486 804 1457 l 980 1486 z "},"I":{"ha":532,"x_min":68,"x_max":465,"o":"m 225 18 l 68 18 l 68 157 l 87 140 l 176 79 l 225 18 m 465 1273 l 465 18 l 316 18 l 248 112 l 181 157 l 68 292 l 68 1486 l 160 1486 l 414 1303 l 465 1273 m 465 1486 l 465 1411 l 445 1418 l 343 1486 l 465 1486 z "},"J":{"ha":683,"x_min":68,"x_max":615,"o":"m 125 18 l 68 18 l 68 125 q 97 79 83 99 q 111 60 111 60 l 125 18 m 615 1486 l 615 505 q 610 222 615 280 q 568 108 606 159 q 465 38 529 57 q 267 18 397 18 l 136 18 q 120 138 130 68 q 104 236 110 208 q 91 273 100 252 q 119 272 115 272 q 186 292 162 272 q 215 341 211 313 q 218 454 218 365 l 218 1486 l 615 1486 m 358 907 l 245 726 q 267 716 245 726 q 309 697 289 705 q 343 655 327 689 q 369 602 360 621 q 381 563 377 581 q 412 514 385 545 q 488 432 438 481 q 537 383 537 383 l 509 445 q 503 504 509 445 q 484 575 498 563 q 462 645 470 587 q 454 703 454 703 q 447 732 454 703 q 439 795 441 762 q 424 837 437 829 q 410 846 410 846 l 358 907 z "},"K":{"ha":1103,"x_min":68,"x_max":1035,"o":"m 462 1486 l 465 1486 l 465 1474 q 463 1479 464 1476 q 462 1486 462 1482 m 465 29 l 465 18 l 68 18 l 68 1291 q 255 772 169 1017 q 363 439 341 528 q 403 275 376 382 q 465 29 430 168 m 947 1295 l 786 823 l 1035 18 l 625 18 l 465 648 l 465 482 q 288 918 397 659 q 68 1428 178 1176 l 68 1486 l 378 1486 q 397 1450 386 1463 q 413 1417 409 1438 q 431 1354 417 1395 q 445 1314 445 1314 q 451 1308 445 1314 q 465 1293 456 1301 l 465 1060 q 412 1064 430 1077 q 345 1028 393 1050 q 315 971 298 1006 q 356 919 331 935 q 400 878 382 903 q 451 812 418 852 q 484 772 484 772 l 541 870 l 571 939 q 553 983 571 939 q 505 1040 535 1026 q 504 1040 504 1040 q 503 1040 503 1040 l 545 1175 q 551 1164 549 1168 q 553 1160 553 1160 l 586 1213 q 583 1230 586 1213 q 574 1272 580 1248 l 640 1486 l 888 1486 l 924 1391 l 947 1295 m 1013 1486 l 991 1424 q 965 1486 983 1445 l 1013 1486 m 420 1173 q 404 1206 420 1173 q 376 1263 389 1239 q 332 1309 362 1287 q 302 1330 302 1330 q 280 1293 302 1330 q 277 1240 258 1255 q 336 1197 321 1199 q 356 1176 347 1195 q 375 1152 365 1158 q 402 1159 385 1145 q 420 1173 420 1173 z "},"L":{"ha":774,"x_min":68,"x_max":706,"o":"m 466 18 l 68 18 l 68 844 q 93 766 88 787 q 135 671 99 736 q 216 527 170 606 q 308 365 262 448 q 381 216 354 282 q 415 135 393 186 q 466 18 437 84 m 473 312 l 706 312 l 706 18 l 600 18 q 557 109 578 68 q 524 170 537 151 q 498 224 511 186 q 473 312 486 262 m 465 1486 l 465 349 q 414 570 439 457 q 369 716 390 684 q 297 779 335 767 q 258 790 258 790 q 235 828 258 790 q 183 917 212 865 q 125 1021 153 968 q 89 1104 98 1074 q 68 1160 83 1120 l 68 1486 l 465 1486 z "},"M":{"ha":1360,"x_min":68,"x_max":1292,"o":"m 414 353 l 414 18 l 68 18 l 68 781 q 99 746 83 764 q 131 713 115 729 q 171 680 131 713 q 229 621 210 646 q 246 556 246 596 q 245 517 245 517 q 325 441 285 479 q 404 365 364 403 q 407 362 404 365 q 414 353 409 359 m 701 18 l 561 18 l 533 200 q 538 190 537 193 q 585 125 556 151 q 667 52 614 100 q 701 18 692 27 m 935 935 l 813 67 l 791 85 l 703 153 l 643 227 l 566 372 q 530 413 547 392 q 495 454 512 433 l 414 987 l 414 576 q 323 652 383 616 q 282 731 302 691 q 242 810 262 770 q 148 885 189 847 q 68 967 107 923 l 68 1486 l 581 1486 q 605 1341 593 1419 q 629 1174 616 1263 l 684 801 l 739 1215 q 748 1201 744 1208 q 815 1114 774 1160 q 868 1036 856 1067 q 895 987 875 1016 q 935 935 915 958 m 1292 356 l 1292 18 l 945 18 l 945 922 q 966 899 957 907 q 1000 848 979 885 q 1029 794 1020 812 q 1044 753 1038 776 q 1056 716 1051 730 q 1094 668 1060 703 q 1152 606 1127 634 q 1214 502 1169 584 q 1292 356 1259 419 m 1292 579 l 1292 442 q 1262 503 1276 465 q 1236 566 1249 541 q 1203 645 1219 595 q 1187 695 1187 695 q 1212 673 1187 695 q 1257 629 1236 652 q 1276 603 1270 614 q 1292 579 1282 591 m 1292 1486 l 1292 660 q 1265 689 1278 679 q 1224 743 1243 707 q 1206 779 1206 779 l 1179 878 l 1101 979 q 1079 1003 1101 979 q 1029 1056 1057 1026 q 976 1113 1002 1086 q 943 1147 950 1140 q 915 1173 926 1160 q 892 1219 903 1185 q 867 1292 880 1253 q 838 1345 853 1331 q 824 1366 822 1358 q 826 1375 826 1375 l 793 1464 l 774 1485 l 774 1486 l 1292 1486 z "},"N":{"ha":1021,"x_min":68,"x_max":954,"o":"m 149 18 l 68 18 l 68 123 q 69 121 68 122 q 71 121 70 121 q 145 24 115 80 q 149 18 147 20 m 954 1076 l 954 18 l 606 18 l 399 686 l 399 18 l 208 18 q 205 34 205 33 q 175 87 198 54 q 145 157 151 120 q 110 224 138 192 q 73 279 82 257 q 68 289 71 285 l 68 458 q 81 450 76 453 q 85 447 85 447 l 68 471 l 68 1486 l 399 1486 l 622 825 l 622 1486 l 707 1486 l 840 1262 q 854 1236 840 1262 q 885 1187 868 1210 q 914 1137 901 1165 q 926 1109 926 1109 l 954 1076 m 954 1486 l 954 1301 q 924 1322 936 1314 q 903 1341 911 1330 q 877 1376 892 1355 q 863 1397 863 1397 q 863 1407 863 1397 q 836 1457 864 1417 q 817 1486 829 1468 l 954 1486 z "},"O":{"ha":1053,"x_min":68,"x_max":985,"o":"m 772 1467 q 903 1363 852 1429 q 974 1195 962 1286 q 977 1163 976 1177 q 951 1198 960 1186 l 897 1272 l 852 1354 l 802 1428 l 772 1467 m 985 627 q 975 313 985 403 q 907 145 963 220 q 753 28 850 69 q 526 -12 657 -12 q 307 26 404 -12 q 150 142 209 64 q 79 309 91 216 q 68 627 68 397 l 68 762 l 95 742 q 143 710 95 742 q 229 640 191 677 q 283 575 248 620 q 353 483 319 530 q 414 400 388 436 q 439 365 439 365 l 466 343 q 475 266 467 286 q 526 236 485 236 q 553 241 543 236 l 586 186 l 732 71 l 643 193 l 790 110 l 732 199 l 605 352 l 588 370 q 589 435 589 389 l 589 716 l 608 700 l 762 599 l 738 640 l 694 728 l 665 753 l 596 822 l 589 834 l 589 1109 q 577 1240 589 1210 q 528 1269 564 1269 q 481 1245 497 1269 q 464 1109 464 1223 l 464 1011 l 446 1033 l 402 1093 l 329 1122 l 349 1029 l 390 972 l 446 903 l 464 885 l 464 500 l 172 825 l 68 925 q 79 1191 68 1112 q 146 1359 88 1283 q 300 1476 203 1436 q 526 1517 397 1517 q 555 1516 545 1517 l 650 1417 q 691 1371 650 1417 q 752 1286 732 1324 q 797 1226 772 1247 q 823 1205 823 1205 q 850 1180 823 1205 q 917 1114 878 1154 q 984 1018 939 1089 q 985 951 984 987 q 985 878 985 916 l 985 627 z "},"P":{"ha":990,"x_min":68,"x_max":922,"o":"m 465 1235 l 465 861 q 480 861 473 861 q 494 861 488 861 q 570 886 548 861 q 591 994 591 911 l 591 1114 q 566 1212 591 1190 q 465 1235 542 1235 m 210 18 l 68 18 l 68 143 l 71 140 l 161 79 l 210 18 m 68 1486 l 467 1486 q 717 1461 629 1486 q 848 1391 805 1436 q 907 1279 891 1345 q 922 1076 922 1215 l 922 947 q 892 743 922 807 q 781 644 862 679 q 571 610 700 610 l 465 610 l 465 18 l 301 18 l 233 112 l 166 157 l 68 274 l 68 1486 z "},"Q":{"ha":1053,"x_min":68,"x_max":985,"o":"m 739 1477 q 743 1475 741 1476 q 747 1474 745 1474 q 903 1363 850 1430 q 970 1223 954 1296 q 985 1009 985 1150 l 985 930 q 851 1227 906 1074 q 739 1477 795 1380 m 133 1338 q 162 1377 150 1363 q 310 1482 218 1445 q 511 1517 398 1517 q 613 1510 568 1517 q 805 1103 701 1324 q 985 722 909 882 l 985 532 q 966 267 985 338 q 900 163 947 203 q 758 377 839 251 q 589 642 677 503 l 589 1109 q 577 1240 589 1210 q 528 1269 564 1269 q 481 1245 497 1269 q 464 1109 464 1223 l 464 838 q 285 1115 372 983 q 133 1338 199 1246 m 960 -159 l 686 -159 q 534 -143 579 -159 q 474 -96 488 -126 q 458 18 458 -62 q 227 86 323 22 q 99 250 130 150 q 68 547 68 347 l 68 1001 q 79 1194 68 1121 q 169 1015 159 1043 q 268 834 181 976 q 464 524 354 693 l 464 424 q 475 266 464 296 q 526 236 485 236 q 577 271 566 236 q 587 338 583 290 q 672 210 630 271 q 751 95 714 148 q 741 93 747 94 q 762 31 743 43 q 804 20 772 23 q 890 -91 864 -62 q 960 -159 913 -117 z "},"R":{"ha":1021,"x_min":68,"x_max":954,"o":"m 271 18 l 68 18 l 68 417 q 156 243 102 348 q 271 18 210 138 m 954 414 q 954 410 954 412 q 954 406 954 408 l 954 18 l 585 18 l 585 506 q 566 652 585 623 q 465 680 546 680 l 465 18 l 385 18 q 221 367 307 189 q 68 675 136 545 l 68 1379 l 122 1291 q 195 1230 122 1291 q 307 1131 269 1169 q 352 1067 345 1093 q 358 1042 358 1042 l 447 888 l 645 742 q 692 710 645 742 q 779 640 740 677 q 860 539 805 612 q 954 414 916 466 m 764 777 q 893 709 857 750 q 943 623 935 660 q 949 571 947 607 l 764 777 m 100 1486 l 349 1486 q 728 1466 629 1486 q 890 1359 829 1444 q 954 1091 952 1274 l 951 1093 l 879 1122 l 899 1029 l 939 972 l 946 964 q 909 855 935 889 q 755 787 869 801 l 721 825 l 578 963 q 585 1041 585 991 l 585 1122 q 559 1213 585 1191 q 465 1235 532 1235 l 465 1082 l 313 1252 l 205 1393 l 100 1486 z "},"S":{"ha":1042,"x_min":68,"x_max":975,"o":"m 496 -11 q 262 45 359 -4 q 115 193 150 103 q 85 340 93 248 l 139 303 l 276 166 l 465 19 l 496 -11 m 536 1516 q 762 1469 665 1511 q 906 1348 870 1421 q 941 1100 941 1276 l 941 1076 l 783 1252 l 675 1393 l 536 1516 m 828 1042 l 573 1042 l 573 1151 q 559 1248 573 1226 q 511 1269 545 1269 q 458 1240 476 1269 q 439 1156 439 1213 q 460 1044 439 1082 q 572 955 479 1008 q 905 707 836 804 q 975 394 975 610 q 936 163 975 237 q 789 38 898 87 q 696 6 743 16 l 549 145 l 402 261 l 297 366 l 80 492 l 80 544 l 448 544 l 448 366 q 464 260 448 283 q 519 236 480 236 q 578 266 559 236 q 597 355 597 296 q 561 524 597 484 q 375 657 522 564 q 179 795 222 756 q 100 912 131 836 q 68 1105 68 985 q 113 1351 68 1274 q 257 1473 157 1429 q 410 1512 323 1501 l 490 1457 l 592 1291 q 665 1230 592 1291 q 777 1131 739 1169 q 821 1070 813 1095 q 828 1042 828 1045 z "},"T":{"ha":1002,"x_min":68,"x_max":935,"o":"m 699 794 l 699 18 l 302 18 l 302 78 l 311 71 l 302 83 l 302 147 l 368 110 l 311 199 l 302 210 l 302 624 l 341 599 l 317 640 l 302 667 l 302 1192 l 68 1192 l 68 1486 l 162 1486 l 229 1417 q 270 1371 229 1417 q 330 1286 310 1324 q 376 1226 351 1247 q 401 1205 401 1205 q 429 1180 401 1205 q 495 1114 457 1154 q 546 1043 514 1093 q 608 942 578 994 q 661 850 639 890 q 684 810 684 810 q 691 802 688 806 q 699 794 695 798 m 935 1486 l 935 1192 l 699 1192 l 699 981 q 678 1005 688 993 q 656 1029 667 1017 q 593 1114 625 1072 q 529 1198 561 1156 l 475 1272 l 431 1354 l 381 1428 l 337 1486 l 935 1486 z "},"U":{"ha":1043,"x_min":68,"x_max":975,"o":"m 407 -1 q 295 31 348 8 q 138 144 189 75 q 77 292 86 214 q 71 389 73 320 q 96 365 79 381 q 154 296 96 365 q 231 190 212 228 q 277 125 248 151 q 359 52 305 100 q 395 16 385 27 q 407 -1 405 4 m 973 377 q 964 271 970 303 q 897 132 952 203 q 750 24 841 60 q 600 -9 689 -1 l 484 85 l 395 153 l 335 227 l 258 372 q 205 432 231 402 q 153 493 179 463 q 120 557 138 527 q 68 615 102 587 q 68 616 68 616 q 68 618 68 617 l 68 1486 l 330 1486 q 326 1424 334 1457 q 323 1375 317 1391 q 336 1334 330 1354 q 353 1300 342 1313 q 389 1263 364 1286 q 440 1201 413 1241 q 465 1168 449 1187 l 465 386 q 475 262 465 288 q 519 236 486 236 q 568 265 556 236 q 578 405 578 294 l 578 1001 q 623 940 597 970 q 659 899 648 909 q 692 848 671 885 q 721 794 712 812 q 736 753 730 776 q 748 716 743 730 q 786 668 752 703 q 844 606 819 634 q 900 513 860 585 q 973 377 940 440 m 975 591 l 975 505 q 975 480 975 492 q 975 457 975 468 q 950 512 962 481 q 928 566 939 544 q 896 645 911 595 q 880 695 880 695 q 904 673 880 695 q 948 629 928 652 q 964 609 958 618 q 975 591 969 600 m 975 1486 l 975 671 q 958 689 963 684 q 916 743 935 707 q 897 779 897 779 l 871 878 l 793 979 q 771 1003 793 979 q 721 1056 749 1026 q 668 1113 694 1086 q 635 1147 642 1140 q 607 1173 618 1160 q 584 1219 595 1185 q 581 1227 582 1223 q 578 1236 580 1232 l 578 1486 l 975 1486 z "},"V":{"ha":1168,"x_min":68,"x_max":1100,"o":"m 1046 1090 l 899 18 l 313 18 q 309 34 311 28 q 288 74 306 43 l 68 1486 l 486 1486 q 548 926 522 1183 q 589 461 573 670 q 654 1213 621 882 l 682 1486 l 811 1486 l 945 1262 q 959 1236 945 1262 q 989 1187 972 1210 q 1018 1137 1006 1165 q 1031 1109 1031 1109 l 1046 1090 m 1100 1486 l 1074 1290 q 1034 1319 1049 1310 q 1008 1341 1019 1328 q 982 1376 997 1355 q 967 1397 967 1397 q 968 1407 967 1397 q 941 1457 969 1417 q 930 1472 935 1465 q 921 1486 925 1480 l 1100 1486 z "},"W":{"ha":1707,"x_min":68,"x_max":1639,"o":"m 962 1486 l 1057 1486 q 1097 1040 1065 1416 q 1026 1271 1061 1158 q 962 1486 992 1385 m 741 44 q 739 31 740 37 q 737 18 738 24 l 245 18 l 142 865 q 185 809 169 816 q 221 775 216 795 q 227 756 227 756 l 252 670 l 245 539 q 258 525 245 539 q 294 490 271 510 q 303 418 316 470 q 290 366 290 366 q 293 338 290 366 q 313 311 296 311 q 388 314 329 311 q 447 318 447 318 l 507 299 q 573 230 507 299 q 661 130 638 161 q 697 87 673 112 q 741 44 721 62 m 1207 18 l 968 18 q 888 487 924 229 q 908 469 896 477 q 1013 387 945 436 q 1080 338 1080 338 l 1030 399 q 1003 458 1030 399 q 958 530 976 517 q 911 599 940 541 q 882 657 882 657 q 874 668 882 657 q 859 697 867 680 q 853 742 856 720 q 848 787 850 764 q 844 762 846 775 q 841 734 843 748 q 833 750 836 745 q 803 792 819 784 q 786 801 786 801 l 711 862 l 664 681 q 690 670 664 681 q 738 652 715 660 q 778 621 755 645 q 819 574 801 596 q 749 99 794 403 q 722 153 734 128 q 702 191 709 177 q 623 283 679 229 q 567 336 567 336 q 538 357 567 336 q 496 400 510 378 q 478 448 481 422 q 454 505 474 474 q 414 555 435 536 q 376 595 393 575 q 350 682 345 631 q 360 714 352 709 q 369 719 369 719 l 391 682 q 421 657 391 682 q 466 614 452 633 q 488 584 480 594 q 496 573 496 573 q 476 628 496 573 q 436 707 456 682 q 398 741 416 732 q 372 764 380 749 q 292 848 363 778 q 204 947 220 919 q 166 1053 166 1008 q 145 1120 166 1064 q 99 1224 123 1176 l 68 1486 l 453 1486 l 494 974 l 535 479 q 644 1486 556 859 l 826 1486 q 915 1130 869 1314 q 1001 785 961 946 q 1070 503 1040 625 q 1109 334 1099 381 q 1144 209 1118 292 q 1207 18 1170 126 m 1639 1486 l 1574 944 q 1511 995 1540 982 q 1449 1020 1474 1008 q 1410 1019 1423 1032 q 1356 983 1396 1004 q 1346 926 1316 961 q 1406 873 1375 889 q 1466 832 1437 858 q 1506 796 1482 817 q 1552 757 1531 774 l 1463 18 l 1392 18 q 1388 33 1389 28 q 1298 369 1357 165 q 1171 798 1238 572 q 1213 1192 1189 997 q 1285 1152 1270 1154 q 1313 1131 1297 1149 q 1341 1106 1329 1112 q 1365 1114 1352 1100 q 1378 1128 1378 1128 q 1350 1161 1378 1128 q 1301 1218 1322 1194 q 1263 1248 1286 1233 q 1223 1273 1240 1263 q 1233 1344 1227 1309 q 1243 1416 1238 1380 q 1264 1395 1254 1404 q 1282 1372 1274 1385 q 1323 1309 1294 1350 q 1352 1268 1352 1268 q 1388 1241 1352 1268 q 1439 1199 1425 1213 q 1484 1149 1453 1185 q 1516 1114 1516 1114 l 1529 1167 q 1494 1232 1529 1167 q 1428 1316 1458 1296 q 1390 1338 1398 1336 q 1356 1369 1382 1341 q 1320 1416 1331 1397 q 1298 1452 1310 1436 q 1276 1486 1295 1455 l 1639 1486 z "},"X":{"ha":1089,"x_min":68,"x_max":1021,"o":"m 821 802 l 1021 18 l 654 18 q 533 553 588 236 q 492 258 519 423 l 454 18 l 68 18 l 211 837 l 68 1486 l 347 1486 q 500 1251 423 1365 q 533 1086 518 1168 l 552 1174 q 707 948 637 1046 q 807 817 777 850 q 814 809 810 812 q 821 802 817 806 m 951 1486 l 852 1023 q 740 1186 805 1087 q 600 1402 675 1285 l 618 1486 l 951 1486 z "},"Y":{"ha":1045,"x_min":68,"x_max":977,"o":"m 626 18 l 320 18 l 320 423 q 433 307 404 348 q 503 202 451 280 q 626 18 555 124 m 688 181 l 688 166 q 538 332 647 211 q 310 585 429 453 l 68 1397 q 183 1170 96 1340 q 370 803 270 999 q 561 429 471 606 q 688 181 652 252 m 977 1486 l 945 1384 q 891 1442 911 1421 q 871 1463 871 1463 q 890 1439 871 1463 q 942 1372 909 1415 l 688 550 l 688 328 q 644 418 655 383 q 582 568 633 450 q 460 842 531 686 q 307 1172 389 999 q 155 1486 226 1344 l 406 1486 q 502 909 491 1057 q 612 1486 536 1148 l 977 1486 z "},"Z":{"ha":867,"x_min":68,"x_max":800,"o":"m 168 1192 l 104 1192 l 104 1278 q 135 1236 118 1258 q 168 1192 151 1215 m 601 601 l 503 312 l 772 312 q 785 285 779 299 q 800 256 791 271 l 800 18 l 68 18 l 68 231 l 312 1000 q 464 793 388 897 q 601 601 539 689 m 787 1156 l 639 716 q 487 889 566 800 q 332 1063 408 979 l 373 1192 l 214 1192 q 156 1255 183 1225 q 104 1312 128 1285 l 104 1486 l 486 1486 q 531 1443 508 1466 q 564 1406 553 1421 q 600 1364 582 1378 q 630 1329 618 1351 q 671 1266 642 1307 q 699 1225 699 1225 q 736 1198 699 1225 q 787 1156 772 1170 q 787 1156 787 1156 q 787 1156 787 1156 m 800 1486 l 800 1251 q 776 1273 787 1265 q 738 1296 746 1293 q 705 1326 730 1298 q 668 1373 678 1354 q 646 1409 658 1392 q 624 1442 636 1421 q 593 1486 611 1462 l 800 1486 z "},"a":{"ha":1138,"x_min":68,"x_max":1070,"o":"m 633 543 q 603 821 618 667 q 573 1158 588 975 q 498 543 513 737 l 633 543 m 174 18 l 68 18 l 81 113 q 133 57 103 86 q 174 18 163 28 m 897 1143 l 920 994 q 918 994 919 994 q 917 995 917 994 q 855 1020 880 1008 q 816 1019 829 1032 q 762 983 802 1004 q 752 926 722 961 q 812 873 782 889 q 871 832 843 858 q 911 797 887 818 q 956 758 935 776 l 1070 18 l 664 18 l 644 282 l 503 282 l 479 18 l 196 18 q 146 117 172 66 q 108 191 120 168 q 94 210 102 199 l 155 647 q 201 603 176 633 q 240 556 226 574 q 266 518 256 536 q 314 469 276 500 q 419 387 352 436 q 487 338 487 338 l 436 399 q 409 458 436 399 q 365 530 382 517 q 317 599 347 541 q 288 657 288 657 q 271 686 288 657 q 240 750 254 715 q 209 792 226 784 q 192 801 192 801 l 177 812 l 270 1486 l 590 1486 q 622 1449 613 1463 q 658 1407 640 1421 q 688 1372 676 1394 q 729 1309 701 1350 q 758 1268 758 1268 q 794 1241 758 1268 q 845 1199 831 1213 q 868 1175 853 1191 q 897 1143 882 1158 m 844 1486 l 878 1267 q 834 1316 852 1304 q 797 1338 804 1336 q 763 1369 789 1341 q 726 1416 736 1397 q 705 1452 716 1436 q 682 1486 698 1460 l 844 1486 m 784 1128 q 756 1161 784 1128 q 707 1218 729 1194 q 647 1263 685 1242 q 609 1284 609 1284 q 601 1247 609 1284 q 617 1194 593 1210 q 691 1152 674 1154 q 719 1131 703 1149 q 747 1106 734 1112 q 771 1114 759 1100 q 784 1128 784 1128 z "},"b":{"ha":1059,"x_min":68,"x_max":991,"o":"m 146 1486 l 464 1486 q 748 1458 653 1486 q 904 1344 844 1430 q 963 1068 963 1259 q 922 889 963 938 q 756 811 879 837 q 943 711 894 780 q 991 499 991 642 l 991 363 q 956 142 991 214 q 868 54 927 83 q 825 193 842 134 q 804 287 808 253 q 705 523 796 347 q 491 909 613 699 q 498 909 495 909 q 505 909 501 909 q 579 937 562 909 q 595 1095 595 965 q 582 1192 595 1164 q 547 1227 568 1219 q 465 1235 526 1234 l 465 954 q 299 1233 382 1095 q 146 1486 215 1372 m 68 1486 l 109 1486 q 300 1085 194 1310 q 487 680 407 861 q 476 680 481 680 q 465 680 471 680 l 465 270 q 572 295 547 271 q 595 406 595 317 q 597 398 596 402 q 599 392 597 395 q 636 244 610 342 q 694 22 661 146 q 527 18 623 18 l 68 18 l 68 1486 z "},"c":{"ha":1073,"x_min":68,"x_max":1005,"o":"m 701 606 l 1005 606 l 1005 549 q 996 342 1005 420 q 969 368 979 358 q 959 378 959 378 l 992 316 q 972 226 984 261 q 874 95 946 154 q 790 341 836 210 q 701 606 745 473 m 465 768 l 465 408 q 477 269 465 300 q 537 236 490 236 q 595 269 581 236 q 600 285 597 273 q 614 241 610 251 q 660 158 623 219 q 743 20 696 98 q 542 -12 652 -12 q 254 48 366 -12 q 104 216 141 109 q 68 540 68 324 l 68 968 q 79 1206 68 1122 q 146 1359 91 1288 q 219 1429 175 1397 q 295 1229 260 1321 q 355 1087 331 1137 q 407 952 378 1038 q 465 768 435 866 m 1005 846 l 617 846 q 609 869 610 867 l 609 1101 q 596 1241 609 1212 q 540 1269 583 1269 q 477 1235 490 1269 q 475 1230 477 1234 q 441 1302 450 1290 q 408 1373 427 1320 q 370 1498 390 1426 q 530 1517 446 1517 q 820 1452 706 1517 q 970 1289 933 1385 q 1005 985 1005 1192 l 1005 846 z "},"d":{"ha":1055,"x_min":68,"x_max":987,"o":"m 155 18 l 68 18 l 68 98 q 109 59 87 79 q 155 18 132 39 m 591 18 q 579 18 585 18 q 568 18 574 18 l 262 18 q 198 65 229 41 q 143 115 168 89 q 107 150 127 131 q 68 191 88 170 l 68 1107 q 144 946 94 1050 q 252 725 194 843 q 367 490 310 607 q 465 289 425 373 l 465 270 q 469 270 467 270 q 474 270 471 270 q 519 168 510 191 q 591 18 532 134 m 922 106 q 900 86 911 94 q 806 39 862 56 q 779 106 787 80 q 710 233 768 138 q 589 428 652 328 q 589 482 589 445 l 589 1053 q 589 1063 589 1058 q 589 1074 589 1069 q 665 949 629 1021 q 707 846 701 877 q 723 772 709 827 q 753 652 736 718 q 788 526 770 587 q 817 432 806 464 q 869 259 840 368 q 898 151 898 151 q 904 138 898 151 q 922 106 910 126 m 501 1485 q 753 1461 681 1479 q 907 1377 854 1435 q 973 1249 960 1320 q 987 968 987 1175 l 987 454 q 968 194 987 260 q 948 252 958 221 q 935 311 939 283 q 911 447 924 370 q 882 572 898 524 q 827 710 874 596 q 724 957 780 823 q 617 1208 667 1090 q 553 1360 567 1326 q 531 1411 545 1378 q 501 1485 517 1443 m 68 1486 l 365 1486 q 389 1486 377 1486 q 412 1486 400 1486 q 446 1355 429 1421 q 469 1264 463 1289 q 476 1235 471 1254 q 470 1235 473 1235 q 465 1235 467 1235 l 465 632 q 448 663 454 648 q 389 788 437 690 q 282 1005 342 886 q 163 1240 223 1124 q 68 1417 103 1356 l 68 1486 z "},"e":{"ha":824,"x_min":68,"x_max":756,"o":"m 679 312 l 756 312 l 756 189 q 719 259 734 232 q 679 312 710 275 m 465 387 l 465 312 l 578 312 q 635 249 606 282 q 678 199 665 216 q 713 157 690 181 q 756 115 736 134 l 756 18 l 68 18 l 68 1128 l 83 1110 q 96 1076 83 1110 q 127 1001 109 1042 q 166 922 146 959 q 203 878 187 884 q 239 844 233 863 q 244 825 244 825 l 270 739 l 262 608 q 276 593 262 608 q 311 559 289 578 q 320 487 334 539 q 307 435 307 435 q 310 407 307 435 q 330 379 313 379 q 406 383 347 379 q 465 387 465 387 l 465 387 m 552 1486 l 730 1486 l 730 1337 q 686 1376 703 1367 q 646 1394 654 1392 q 609 1421 637 1396 q 574 1457 585 1442 q 552 1486 562 1473 m 68 1486 l 461 1486 q 461 1486 461 1486 q 461 1486 461 1486 q 501 1448 481 1459 q 535 1416 521 1436 q 582 1358 549 1396 q 614 1320 614 1320 q 654 1297 614 1320 q 709 1261 693 1273 q 718 1253 712 1257 q 730 1242 723 1248 l 730 1192 l 465 1192 l 465 914 l 713 914 l 713 635 l 465 635 l 465 585 q 428 628 447 610 q 393 664 409 646 q 368 750 362 701 q 378 783 370 779 q 386 788 386 788 l 409 750 q 439 726 409 750 q 484 683 469 703 q 506 652 498 663 q 513 642 513 642 q 493 696 513 642 q 454 777 473 751 q 416 810 433 802 q 390 833 398 819 q 310 917 381 846 q 221 1017 238 988 q 184 1121 184 1078 q 145 1231 184 1138 q 79 1350 107 1324 q 73 1355 76 1352 q 68 1360 70 1357 l 68 1486 z "},"f":{"ha":808,"x_min":68,"x_max":740,"o":"m 68 1486 l 740 1486 l 740 1192 l 465 1192 l 465 914 l 709 914 l 709 635 l 465 635 l 465 18 l 68 18 l 68 1486 z "},"g":{"ha":1057,"x_min":68,"x_max":989,"o":"m 969 806 l 989 806 l 989 756 l 969 806 m 532 806 l 865 806 l 872 783 l 900 714 l 943 641 l 940 556 l 978 511 l 989 500 l 989 18 l 789 18 q 769 92 778 55 q 668 417 741 211 q 532 806 595 623 m 465 544 l 465 397 q 477 267 465 300 q 530 236 491 236 q 541 237 538 236 q 544 224 541 241 q 568 147 548 199 q 616 31 587 96 q 601 22 614 28 q 455 -12 538 -12 q 269 34 355 -12 q 136 150 181 80 q 79 294 90 220 q 68 522 68 372 l 68 958 q 92 1263 68 1166 q 205 1421 113 1348 q 264 1282 239 1343 q 296 1192 288 1221 q 365 925 313 1122 q 465 544 416 729 m 989 945 l 593 945 l 593 1079 q 582 1237 593 1205 q 528 1269 569 1269 q 477 1241 492 1269 q 465 1101 465 1213 l 465 1006 q 435 1120 439 1089 q 383 1250 431 1156 q 269 1463 336 1344 q 516 1517 370 1517 q 805 1448 690 1517 q 955 1284 920 1379 q 989 1009 989 1190 l 989 945 z "},"h":{"ha":1048,"x_min":68,"x_max":980,"o":"m 428 1486 l 465 1486 l 465 1436 q 446 1461 455 1449 q 428 1486 437 1474 m 171 18 l 68 18 l 68 256 l 75 237 l 118 164 l 115 79 l 153 35 l 171 18 m 980 448 l 980 18 l 583 18 l 583 635 l 465 635 l 465 18 l 254 18 l 250 63 l 232 87 l 191 156 l 165 278 l 130 367 l 110 428 l 68 448 l 68 1486 l 330 1486 q 465 1270 392 1385 l 465 961 l 583 961 l 583 1078 q 806 719 698 892 q 980 448 914 546 m 980 1026 l 980 645 q 897 784 942 706 q 811 936 852 863 q 736 1065 770 1009 q 689 1139 703 1122 q 583 1277 672 1158 l 583 1428 q 720 1255 663 1326 q 786 1172 777 1184 q 870 1093 814 1135 q 973 1029 926 1051 q 980 1026 973 1029 m 980 1486 l 980 1149 q 873 1242 924 1190 q 806 1320 822 1295 q 723 1420 781 1356 q 664 1485 664 1485 l 780 1265 q 727 1328 780 1265 q 593 1486 673 1390 l 980 1486 z "},"i":{"ha":532,"x_min":68,"x_max":465,"o":"m 465 208 l 465 18 l 68 18 l 68 803 q 94 772 90 789 q 98 756 98 756 l 124 670 l 117 539 q 130 525 117 539 q 165 490 143 510 q 175 418 188 470 q 161 366 161 366 q 164 338 161 366 q 184 311 167 311 q 260 314 201 311 q 319 318 319 318 l 379 299 q 406 271 379 299 q 465 208 433 242 m 465 1486 l 465 313 q 446 330 453 323 q 439 336 439 336 q 410 357 439 336 q 368 400 382 378 q 350 448 353 422 q 326 505 346 474 q 286 555 307 536 q 248 595 264 575 q 222 682 216 631 q 232 714 224 709 q 240 719 240 719 l 263 682 q 293 657 263 682 q 338 614 323 633 q 360 584 352 594 q 368 573 368 573 q 347 628 368 573 q 308 707 327 682 q 270 741 288 732 q 244 764 252 749 q 164 848 235 778 q 75 947 92 919 q 68 962 73 952 l 68 1486 l 465 1486 z "},"j":{"ha":683,"x_min":68,"x_max":615,"o":"m 254 18 l 68 18 l 68 275 q 96 273 84 273 q 174 150 133 218 q 254 18 215 83 m 615 513 l 615 505 q 610 222 615 280 q 568 108 605 159 q 464 38 528 57 q 413 27 445 31 q 307 181 359 105 q 210 323 255 258 q 215 341 212 328 q 218 454 218 372 l 218 930 q 311 859 256 911 q 419 749 366 808 q 516 636 473 690 q 575 562 559 583 q 615 513 579 556 m 615 1486 l 615 1187 q 502 1334 570 1247 q 434 1420 434 1420 q 455 1385 434 1420 q 506 1301 477 1350 q 566 1199 535 1252 q 615 1112 597 1147 l 615 676 q 514 779 538 758 q 392 881 480 807 q 218 1017 304 956 l 218 1486 l 615 1486 z "},"k":{"ha":1103,"x_min":68,"x_max":1035,"o":"m 348 18 l 68 18 l 68 337 q 218 166 141 254 q 348 18 296 79 m 465 370 l 465 93 q 338 210 400 153 q 260 288 276 267 q 191 369 245 305 q 68 508 136 432 l 68 881 q 120 790 93 837 q 156 726 146 743 q 254 631 182 673 q 347 551 295 606 q 410 471 398 496 q 465 370 422 444 m 671 18 l 625 18 l 589 158 l 633 115 l 669 26 l 671 18 m 1013 1486 l 786 823 l 1035 18 l 772 18 l 751 49 l 720 149 l 671 194 l 532 386 l 586 172 q 638 87 610 134 q 678 18 666 39 l 751 18 q 716 67 738 35 q 680 130 694 100 q 635 223 660 171 q 591 308 611 276 q 531 387 583 319 l 465 648 l 465 473 q 302 679 387 572 q 198 812 218 785 q 145 880 182 832 q 68 980 108 927 l 68 1486 l 465 1486 l 465 916 l 641 1486 l 1013 1486 z "},"l":{"ha":774,"x_min":68,"x_max":706,"o":"m 465 1223 l 465 312 l 706 312 l 706 18 l 68 18 l 68 1486 l 203 1486 l 345 1339 l 440 1266 l 465 1223 m 465 1486 l 465 1438 l 424 1455 l 391 1486 l 465 1486 z "},"m":{"ha":1360,"x_min":68,"x_max":1292,"o":"m 414 411 l 414 18 l 68 18 l 68 837 l 211 635 l 345 477 l 414 411 m 718 18 l 561 18 l 520 286 l 568 203 l 696 56 l 718 18 m 1292 1486 l 1292 18 l 945 18 l 945 1009 l 830 186 l 734 298 l 672 404 l 480 549 l 414 987 l 414 611 l 338 687 l 267 793 l 161 919 l 107 992 l 68 1024 l 68 1486 l 581 1486 q 605 1341 593 1419 q 629 1174 616 1263 l 684 801 l 774 1486 l 1292 1486 z "},"n":{"ha":1021,"x_min":68,"x_max":954,"o":"m 68 1334 l 68 1486 l 399 1486 l 610 860 l 583 882 l 499 956 l 394 1019 l 278 1134 l 152 1250 l 99 1303 l 68 1334 m 954 438 l 954 18 l 606 18 l 399 686 l 399 18 l 68 18 l 68 1145 l 131 1082 l 467 850 l 751 597 l 951 440 l 954 438 m 954 1486 l 954 582 l 857 650 l 741 755 l 622 850 l 622 1486 l 954 1486 z "},"o":{"ha":1053,"x_min":68,"x_max":985,"o":"m 985 627 q 975 313 985 403 q 907 145 963 220 q 753 28 850 69 q 527 -12 657 -12 q 307 26 404 -12 q 150 142 209 64 q 79 309 91 216 q 68 627 68 397 l 68 878 q 79 1191 68 1102 q 79 1194 79 1192 q 79 1198 79 1196 q 98 1168 92 1178 q 116 1104 121 1129 q 112 1078 112 1078 l 138 925 l 275 779 q 309 747 275 779 q 366 676 343 715 q 393 611 376 656 q 425 520 410 566 q 451 438 440 473 q 463 402 463 402 l 465 399 q 475 266 465 291 q 526 236 485 236 q 528 236 527 236 q 532 236 530 236 l 534 223 l 633 109 l 595 229 l 707 146 l 686 236 l 623 389 l 589 452 l 589 1109 q 577 1240 589 1210 q 528 1269 564 1269 q 481 1245 497 1269 q 464 1109 464 1221 l 464 699 l 385 861 l 267 1053 l 155 1289 l 136 1344 q 146 1359 140 1352 q 300 1476 203 1436 q 527 1517 397 1517 q 747 1478 649 1517 q 903 1363 844 1440 q 974 1195 962 1286 q 985 878 985 1109 l 985 627 m 667 1159 l 648 1065 l 665 1008 l 693 940 l 735 867 l 732 782 l 770 737 l 882 635 l 875 676 l 867 766 l 849 789 l 809 859 l 783 980 l 747 1069 l 728 1131 l 667 1159 z "},"p":{"ha":990,"x_min":68,"x_max":922,"o":"m 465 1235 l 465 861 q 480 861 473 861 q 494 861 488 861 q 570 886 548 861 q 591 994 591 911 l 591 1114 q 566 1212 591 1190 q 465 1235 542 1235 m 465 313 l 465 18 l 68 18 l 68 1404 q 92 1322 87 1353 q 113 1263 96 1284 q 129 1242 129 1242 q 146 1216 129 1242 q 185 1151 164 1191 q 207 1080 195 1131 q 227 978 218 1030 q 242 887 236 926 q 248 847 248 847 q 273 798 260 823 q 298 749 286 774 q 325 716 298 749 q 358 659 351 684 q 348 593 365 633 q 332 554 332 554 q 427 402 374 483 q 439 375 427 402 q 465 313 451 347 m 194 1486 l 467 1486 q 716 1461 629 1486 q 847 1391 805 1436 q 907 1279 891 1344 q 922 1076 922 1211 l 922 947 q 892 743 922 807 q 781 644 862 680 q 571 610 700 610 l 527 610 q 465 689 511 652 q 457 767 461 728 q 450 847 454 807 q 370 948 399 896 q 312 1066 341 1000 q 283 1150 298 1108 q 254 1235 269 1192 l 231 1309 l 221 1390 l 201 1464 l 194 1486 z "},"q":{"ha":1055,"x_min":68,"x_max":987,"o":"m 465 587 l 465 424 q 465 366 465 383 q 425 426 447 395 q 395 469 403 456 q 385 530 382 486 q 385 604 388 574 q 386 682 380 632 q 391 732 391 732 q 406 710 391 732 q 432 666 420 688 q 442 629 442 644 q 460 591 442 614 q 462 589 461 590 q 465 587 463 587 m 454 18 q 227 86 322 23 q 99 250 129 151 q 68 547 68 347 l 68 1001 q 86 1230 68 1150 q 123 1322 96 1274 q 142 1288 132 1308 q 161 1238 153 1268 q 193 1151 172 1197 q 212 1073 214 1104 q 228 995 210 1042 q 254 936 245 949 q 267 885 262 922 q 273 831 271 848 q 271 789 274 812 q 268 753 269 766 q 285 705 266 739 q 317 642 304 671 q 330 581 323 627 q 343 481 337 534 q 354 384 350 429 q 360 328 359 339 q 384 239 361 306 q 418 157 406 173 q 452 62 445 118 q 454 18 454 45 m 987 18 l 987 -159 l 687 -159 q 534 -143 580 -159 q 475 -96 490 -127 q 467 -73 471 -90 q 498 10 481 -37 q 516 71 515 56 q 508 124 517 91 q 507 193 499 157 q 507 238 512 215 q 526 236 515 236 q 578 271 566 236 q 589 435 589 304 l 589 1109 q 577 1240 589 1212 q 529 1269 565 1269 q 481 1245 498 1269 q 465 1109 465 1223 l 465 728 q 447 781 450 746 q 443 816 443 816 l 457 915 l 422 1017 q 382 1093 422 1017 q 333 1184 343 1170 q 316 1210 323 1197 q 312 1256 309 1222 q 318 1329 315 1289 q 311 1381 321 1368 q 306 1403 300 1395 q 311 1411 311 1411 l 315 1484 q 511 1517 402 1517 q 748 1474 644 1517 q 903 1363 852 1430 q 970 1223 954 1297 q 985 1009 985 1155 l 985 532 q 966 267 985 334 q 890 156 946 197 q 741 93 833 114 q 762 31 743 43 q 849 18 779 18 l 987 18 z "},"r":{"ha":1021,"x_min":68,"x_max":954,"o":"m 465 1235 l 465 909 q 559 926 532 909 q 585 1041 585 943 l 585 1122 q 559 1213 585 1191 q 465 1235 533 1235 m 937 18 l 585 18 l 585 348 q 590 347 587 347 q 667 351 606 347 q 728 355 728 355 l 780 336 q 817 267 780 336 q 863 168 853 198 q 900 94 873 136 q 927 51 927 51 l 937 18 m 883 720 q 894 709 887 716 q 944 623 934 662 q 954 406 954 585 l 954 18 l 949 18 q 939 135 945 68 q 929 227 933 201 q 889 320 923 266 q 855 374 855 374 q 835 394 855 374 q 810 437 814 414 q 812 486 806 460 q 813 542 819 511 q 793 592 806 572 q 772 632 780 612 q 781 718 755 668 q 806 751 795 747 q 816 756 816 756 l 823 718 q 843 694 823 718 q 869 651 863 670 q 879 620 875 631 q 882 610 882 610 q 884 648 882 610 q 883 720 886 687 m 679 1474 q 729 1466 709 1469 q 891 1359 828 1444 q 954 1085 954 1273 q 909 855 954 913 q 837 806 885 823 q 789 892 828 827 q 746 984 751 958 q 752 1089 734 1048 q 759 1199 759 1105 q 743 1318 760 1293 q 711 1353 724 1343 q 692 1378 698 1364 q 681 1413 687 1392 q 675 1434 675 1434 q 679 1441 675 1434 q 679 1474 683 1448 m 68 1486 l 349 1486 q 465 1485 412 1486 q 564 1482 519 1484 l 596 1299 q 599 1273 596 1299 q 610 1224 602 1246 q 618 1174 617 1202 q 618 1145 618 1145 l 646 1078 q 645 1044 646 1078 q 645 968 644 1010 q 652 889 646 926 q 670 846 657 852 q 692 812 694 831 q 689 793 689 793 l 680 707 l 617 576 q 624 561 617 576 q 646 527 631 547 q 625 455 660 507 q 591 404 591 404 q 589 399 591 404 q 585 389 587 395 l 585 506 q 566 652 585 624 q 465 680 545 680 l 465 18 l 68 18 l 68 1486 z "},"s":{"ha":1042,"x_min":68,"x_max":974,"o":"m 941 1042 l 573 1042 l 573 1151 q 559 1248 573 1226 q 511 1269 545 1269 q 457 1240 475 1269 q 439 1156 439 1213 q 460 1044 439 1081 q 572 955 478 1008 q 905 707 836 803 q 974 394 974 610 q 936 163 974 237 q 789 38 897 87 q 534 -12 680 -12 q 262 45 374 -12 q 115 193 149 103 q 80 448 80 283 l 80 544 l 221 544 q 244 505 227 526 q 316 424 269 473 q 363 375 363 375 l 338 436 q 337 476 338 436 q 330 544 336 515 l 448 544 l 448 366 q 464 260 448 283 q 519 236 480 236 q 578 266 559 236 q 597 355 597 296 q 561 524 597 484 q 375 657 522 564 q 294 711 321 692 q 289 744 292 724 q 288 787 287 765 q 274 829 288 821 q 260 838 260 838 l 212 899 l 156 817 q 99 912 123 857 q 68 1105 68 986 q 113 1351 68 1274 q 257 1473 157 1429 q 498 1517 357 1517 q 762 1469 652 1517 q 906 1348 870 1421 q 926 1283 918 1322 q 894 1310 910 1299 q 878 1321 878 1321 q 855 1284 878 1321 q 849 1231 831 1246 q 905 1188 892 1190 q 924 1169 916 1186 q 941 1145 932 1152 q 941 1123 941 1134 q 941 1100 941 1112 l 941 1042 z "},"t":{"ha":1002,"x_min":68,"x_max":935,"o":"m 138 1192 l 68 1192 l 68 1294 q 94 1264 78 1282 q 116 1236 110 1246 q 138 1192 121 1227 m 935 1398 l 935 1192 l 699 1192 l 699 180 l 662 235 l 597 280 l 456 458 l 412 347 l 502 263 l 588 202 l 656 113 l 699 37 l 699 18 l 302 18 l 302 1192 l 185 1192 l 193 1204 q 184 1269 193 1204 q 154 1353 175 1333 q 125 1375 132 1373 q 104 1407 119 1378 q 88 1452 90 1433 q 81 1486 85 1470 l 809 1486 l 889 1426 l 935 1398 z "},"u":{"ha":1043,"x_min":68,"x_max":975,"o":"m 122 1486 l 465 1486 l 465 1139 l 459 1141 l 349 1257 l 229 1373 l 180 1426 l 122 1486 m 975 572 l 975 505 q 964 271 975 340 q 897 132 952 203 q 750 24 841 60 q 536 -12 659 -12 q 295 31 397 -12 q 138 144 189 75 q 77 292 86 214 q 68 618 68 363 l 68 1343 l 199 1205 l 465 1016 l 465 386 q 475 262 465 288 q 519 236 486 236 q 568 265 556 236 q 578 405 578 294 l 578 923 l 795 721 l 975 572 m 975 1486 l 975 721 l 903 774 l 793 879 l 642 1005 l 578 1063 l 578 1486 l 975 1486 z "},"v":{"ha":1169,"x_min":68,"x_max":1101,"o":"m 643 18 l 297 18 l 238 396 l 339 290 l 521 142 l 630 26 l 643 18 m 1034 1000 l 899 18 l 867 18 l 802 79 l 612 269 l 470 385 l 370 490 l 209 586 l 68 1486 l 487 1486 q 590 461 559 872 q 655 1213 621 882 l 681 1472 l 714 1414 q 784 1353 714 1414 q 890 1254 854 1293 q 931 1190 926 1215 q 937 1165 937 1165 l 1018 1012 l 1034 1000 m 1101 1486 l 1060 1188 l 903 1375 l 823 1486 l 1101 1486 z "},"w":{"ha":1708,"x_min":68,"x_max":1640,"o":"m 970 1486 l 1057 1486 q 1075 1309 1063 1447 q 1070 1315 1073 1312 q 1066 1321 1068 1318 l 1016 1396 l 977 1476 l 970 1486 m 115 1104 l 68 1486 l 454 1486 l 473 1232 l 440 1245 l 456 1152 l 484 1110 l 494 974 l 522 648 l 267 948 l 115 1104 m 767 213 q 753 118 760 167 q 738 18 746 70 l 245 18 l 138 902 l 186 865 q 233 833 186 865 q 315 763 279 801 q 366 698 333 743 q 431 606 399 652 q 487 524 463 559 q 511 488 511 488 l 585 425 l 648 309 l 767 213 m 776 275 q 772 250 774 262 q 768 224 770 237 l 706 316 l 776 275 m 840 726 q 817 562 831 659 q 785 336 803 465 l 676 475 l 545 621 q 560 796 551 704 q 581 989 569 888 l 616 953 l 644 868 l 698 823 l 840 726 m 1522 507 l 1463 18 l 968 18 q 848 787 900 358 q 845 761 846 775 q 841 732 843 747 l 824 762 l 785 852 l 758 876 l 692 945 l 621 1067 l 594 1102 q 617 1288 605 1192 q 645 1486 630 1383 l 821 1486 q 871 1409 857 1438 q 914 1349 890 1371 q 939 1328 939 1328 q 965 1303 939 1328 q 1028 1237 991 1278 q 1089 1142 1048 1213 q 1101 1002 1094 1076 l 1144 444 q 1187 960 1160 713 q 1197 940 1194 947 q 1200 933 1200 933 q 1243 884 1222 909 q 1286 836 1265 860 q 1325 803 1286 836 q 1379 745 1363 770 q 1393 680 1396 719 q 1391 640 1391 640 q 1456 573 1423 607 q 1522 507 1489 540 m 1640 1486 l 1548 718 q 1475 775 1522 747 q 1402 933 1443 844 q 1297 1024 1341 978 q 1206 1127 1252 1071 q 1255 1486 1227 1306 l 1640 1486 z "},"x":{"ha":1089,"x_min":68,"x_max":1021,"o":"m 441 1486 l 451 1486 q 454 1468 453 1475 q 454 1468 454 1468 q 454 1468 454 1468 q 441 1486 444 1476 m 335 18 l 68 18 l 113 278 q 153 233 129 255 q 215 175 178 210 q 261 122 266 126 q 265 97 256 117 q 291 63 269 86 q 335 18 313 40 m 943 325 l 1021 18 l 654 18 q 533 553 587 244 q 492 258 519 423 l 467 102 l 342 208 l 258 276 l 201 350 l 146 465 l 211 837 l 68 1486 l 252 1486 q 261 1451 256 1468 q 275 1423 266 1434 q 309 1387 286 1409 q 357 1324 332 1364 q 419 1237 381 1284 q 468 1160 458 1191 q 512 1081 477 1128 q 559 1022 547 1035 q 590 971 572 1008 q 616 917 608 935 q 630 876 625 899 q 640 840 635 852 q 674 791 643 825 q 730 729 706 758 q 765 667 741 714 q 814 568 789 621 q 860 470 840 515 q 886 414 881 425 q 907 377 891 403 q 943 325 924 352 m 833 755 l 888 538 q 870 555 880 545 q 838 617 850 573 q 811 690 825 661 q 783 769 797 719 q 770 819 770 819 q 792 798 770 819 q 833 755 814 777 m 951 1486 l 816 854 q 799 887 805 872 q 792 902 792 902 l 770 1001 l 698 1103 q 649 1159 698 1103 q 568 1250 600 1215 l 618 1486 l 951 1486 z "},"y":{"ha":1072,"x_min":68,"x_max":1004,"o":"m 951 1318 l 714 550 l 714 18 l 347 18 l 347 550 l 68 1486 l 433 1486 q 528 909 517 1057 q 639 1486 562 1148 l 861 1486 l 915 1385 q 926 1363 915 1385 q 951 1318 937 1340 m 1004 1486 l 994 1453 q 983 1464 987 1458 q 968 1486 973 1478 l 1004 1486 z "},"z":{"ha":867,"x_min":68,"x_max":799,"o":"m 703 312 l 799 312 l 799 102 q 747 217 777 151 q 703 312 718 284 m 533 401 l 503 312 l 611 312 q 658 254 645 272 q 721 180 678 222 q 764 138 764 138 l 799 84 l 799 18 l 68 18 l 68 231 l 264 849 l 278 793 l 264 662 q 276 647 264 662 q 310 614 288 633 q 315 542 331 593 q 300 490 300 490 q 301 461 300 490 q 319 433 302 433 q 395 437 336 433 q 454 441 454 441 l 513 422 q 519 416 513 422 q 533 401 524 410 m 799 1486 l 799 1192 l 557 473 q 530 496 545 482 q 507 524 515 509 q 492 572 494 546 q 472 629 490 597 q 434 679 454 659 q 398 718 414 699 q 376 804 368 755 q 389 837 380 832 q 397 842 397 842 l 418 804 q 447 781 418 804 q 489 737 475 757 q 509 706 501 717 q 517 696 517 696 q 499 750 517 696 q 464 831 482 805 q 428 864 446 856 q 403 887 410 873 q 369 926 398 895 q 309 991 340 957 l 373 1192 l 210 1192 q 171 1306 201 1230 q 119 1404 142 1382 q 104 1418 109 1414 l 104 1486 l 799 1486 z "}}}
